PathFileType	4	(X/Y/Z)	D:\TRACE\spotREDO_2-26-24\spot_justBody_Motion_1_2-platform.trc
DataRate	CameraRate	NumFrames	NumMarkers	Units	OrigDataRate	OrigDataStartFrame	OrigNumFrames
100.00	100.00	      30	5	mm	100.00	4376	      7000
Frame#	Time	Left_Front			Right_Front			Left_Aft			Right_Aft			Post			
		X1	Y1	Z1	X2	Y2	Z2	X3	Y3	Z3	X4	Y4	Z4	X5	Y5	Z5	

4376	43.750	-646.78302	-20.03459	-579.29425	768.05121	-8.53221	-495.11218	-718.01001	21.67812	638.83289	852.47931	29.26308	641.77441	62.77790	595.84131	-1002.71497	
4377	43.760	-646.88879	-19.90005	-579.31439	767.97162	-8.50715	-494.93155	-718.16278	21.48569	638.86737	852.52319	28.81410	641.74420	62.44304	596.28674	-1002.51520	
4378	43.770	-647.14484	-19.76776	-579.29071	767.80133	-8.28683	-494.99594	-718.36469	21.14325	638.99432	852.13007	28.69709	641.96198	62.01419	596.79602	-1002.37439	
4379	43.780	-647.48724	-19.42498	-579.23547	767.61530	-8.02715	-494.89255	-718.56213	20.78943	639.18237	851.71814	28.69930	642.24976	61.68010	597.25378	-1002.15863	
4380	43.790	-647.73242	-19.19836	-579.21826	767.27893	-7.90044	-494.78717	-718.75226	20.57718	639.28619	851.32953	28.47857	642.31616	61.47733	597.69568	-1002.08704	
4381	43.800	-647.91370	-18.96122	-579.18420	766.78058	-7.61294	-494.77933	-719.19830	20.20319	639.28156	851.11041	28.23245	642.36194	61.34747	598.13953	-1001.87445	
4382	43.810	-648.17584	-18.56364	-579.14484	766.58893	-7.45554	-494.78293	-719.53223	19.93031	639.29218	850.86713	27.87605	642.34808	61.26779	598.47937	-1001.46600	
4383	43.820	-648.33624	-18.25178	-579.07532	766.20251	-7.22297	-494.74948	-719.75391	19.69654	639.42120	850.68732	27.75433	642.42841	60.85617	598.98993	-1001.05438	
4384	43.830	-648.58282	-18.02112	-578.95404	765.62311	-6.74707	-494.85980	-720.03992	19.51749	639.47321	850.32141	27.52501	642.52478	60.48106	599.32031	-1000.60681	
4385	43.840	-649.00427	-17.81649	-578.89587	765.44745	-6.56746	-494.64243	-720.38989	19.38990	639.48474	850.10138	27.32217	642.64313	60.27632	599.64844	-1000.23260	
4386	43.850	-649.49872	-17.58053	-578.78589	765.31805	-6.51412	-494.56607	-720.72485	19.21788	639.54681	849.72168	26.75308	642.66766	59.84980	600.16418	-999.84869	
4387	43.860	-649.76984	-17.50613	-578.79633	765.10474	-6.38526	-494.34875	-721.08844	18.88636	639.55139	849.33466	26.54300	642.79779	59.43377	600.65613	-999.39496	
4388	43.870	-650.17200	-17.10264	-578.95959	764.63379	-6.07351	-494.40808	-721.40393	18.67577	639.63873	848.90704	26.33169	642.80206	59.12628	601.14136	-999.05139	
4389	43.880	-650.56946	-16.80111	-578.59528	764.28613	-5.82807	-494.44263	-721.84851	18.55173	639.77490	848.51282	25.92613	642.90851	58.85862	601.56226	-998.71716	
4390	43.890	-651.06744	-16.40500	-578.69983	763.90765	-5.65745	-494.06351	-722.47186	18.06912	639.81934	848.28992	25.81680	643.04065	58.39420	602.10028	-998.52649	
4391	43.900	-651.42419	-16.11582	-578.56378	763.36200	-5.32378	-494.02094	-722.94000	17.64466	640.06158	847.77979	25.53236	643.12048	57.79304	602.62689	-998.22400	
4392	43.910	-651.74371	-15.80292	-578.48340	762.87030	-4.96130	-493.93695	-723.14746	17.45676	640.19061	847.26849	25.26076	643.18866	57.19895	603.04279	-997.90186	
4393	43.920	-652.08722	-15.54061	-578.39880	762.61279	-4.93464	-493.89957	-723.42255	17.62894	640.27191	846.74286	24.87690	643.23169	56.85555	603.42328	-997.52679	
4394	43.930	-652.61267	-15.36125	-578.24548	762.23340	-4.78281	-493.86630	-724.12848	16.74985	640.28699	846.24280	24.48194	643.24750	56.55222	603.77985	-997.29144	
4395	43.940	-652.93384	-15.20385	-578.23590	761.70386	-4.47454	-493.71564	-724.44910	16.42349	640.30768	845.91943	24.14272	643.37964	56.69560	604.48981	-996.55945	
4396	43.950	-653.79077	-14.70396	-578.27765	761.17896	-4.29143	-493.64755	-724.95673	16.15804	640.40399	845.70331	23.95562	643.56085	56.20578	605.09717	-996.27417	
4397	43.960	-654.22607	-14.31507	-578.20251	760.47986	-3.91520	-493.68835	-725.43976	15.81122	640.49463	845.07721	23.76501	643.72931	55.20876	605.44531	-995.98712	
4398	43.970	-654.44415	-14.11592	-578.10645	760.16370	-3.73283	-493.68741	-726.13629	15.75271	640.60449	844.32635	23.51086	643.80249	54.95665	605.88641	-995.71466	
4399	43.980	-654.76306	-13.97001	-578.07275	759.51306	-3.24249	-493.68506	-726.47742	15.47822	640.65735	843.90112	23.36834	643.83466	54.32530	606.41583	-995.04498	
4400	43.990	-655.55389	-13.75680	-577.98669	759.04803	-3.17472	-493.49188	-726.74744	15.19634	640.74329	843.36694	22.82920	643.79584	53.34209	607.02533	-994.87433	
4401	44.000	-656.39484	-13.42705	-577.90540	758.46344	-2.86617	-493.46378	-727.56262	14.68509	640.83099	843.22223	22.19687	643.75952	52.99887	607.29236	-994.65887	
4402	44.010	-656.87592	-13.17710	-577.87427	757.96057	-2.71737	-493.33789	-728.11249	14.47020	640.94611	842.39172	21.82086	644.07660	52.31806	607.85535	-993.94348	
4403	44.020	-657.40472	-12.71378	-577.74506	757.50037	-2.41235	-493.21756	-728.63177	14.25134	641.09137	841.75012	21.74024	644.19257	51.90239	608.36530	-993.48401	
4404	44.030	-657.94983	-12.36943	-577.61987	756.85400	-2.19511	-493.18527	-729.39612	14.17650	641.14185	841.09167	21.15800	644.03027	51.93544	609.01727	-992.80042	
4405	44.040	-658.45764	-12.17197	-577.56342	756.05066	-1.89863	-493.08826	-729.88000	13.64619	641.27405	840.68933	20.63272	643.97949	51.40075	609.43634	-992.65942	
